<mxfile host="app.diagrams.net" agent="Mozilla/5.0 (Windows NT 10.0; Win64; x64) AppleWebKit/537.36 (KHTML, like Gecko) Chrome/136.0.0.0 Safari/537.36" version="27.0.6">
  <diagram name="Page-1" id="VPbtGnGZYVjo_4n5Ib0U">
    <mxGraphModel dx="1188" dy="726" grid="1" gridSize="10" guides="1" tooltips="1" connect="1" arrows="1" fold="1" page="1" pageScale="1" pageWidth="1169" pageHeight="827" math="0" shadow="0">
      <root>
        <mxCell id="0" />
        <mxCell id="1" parent="0" />
        <mxCell id="4hteUr-Ji259Gm0KMIdJ-2" value="" style="image;points=[];aspect=fixed;html=1;align=center;shadow=0;dashed=0;image=img/lib/allied_telesis/computer_and_terminals/Personal_Computer_with_Server.svg;" vertex="1" parent="1">
          <mxGeometry x="120" y="240" width="120" height="120" as="geometry" />
        </mxCell>
        <mxCell id="4hteUr-Ji259Gm0KMIdJ-4" value="" style="shape=image;verticalLabelPosition=bottom;labelBackgroundColor=default;verticalAlign=top;aspect=fixed;imageAspect=0;image=https://png.pngtree.com/png-vector/20240508/ourmid/pngtree-lifelike-3d-cat-illustration-png-image_12383109.png;" vertex="1" parent="1">
          <mxGeometry x="160" y="190" width="90" height="90" as="geometry" />
        </mxCell>
        <mxCell id="4hteUr-Ji259Gm0KMIdJ-6" value="crazy_cat.com" style="text;html=1;align=center;verticalAlign=middle;whiteSpace=wrap;rounded=0;" vertex="1" parent="1">
          <mxGeometry x="160" y="150" width="60" height="30" as="geometry" />
        </mxCell>
        <mxCell id="4hteUr-Ji259Gm0KMIdJ-7" value="3333" style="text;html=1;align=center;verticalAlign=middle;whiteSpace=wrap;rounded=0;" vertex="1" parent="1">
          <mxGeometry x="260" y="250" width="60" height="20" as="geometry" />
        </mxCell>
        <mxCell id="4hteUr-Ji259Gm0KMIdJ-8" value="5555" style="text;html=1;align=center;verticalAlign=middle;whiteSpace=wrap;rounded=0;" vertex="1" parent="1">
          <mxGeometry x="260" y="330" width="60" height="20" as="geometry" />
        </mxCell>
        <mxCell id="4hteUr-Ji259Gm0KMIdJ-9" value="" style="endArrow=classic;html=1;rounded=0;entryX=1;entryY=0.5;entryDx=0;entryDy=0;" edge="1" parent="1" target="4hteUr-Ji259Gm0KMIdJ-7">
          <mxGeometry width="50" height="50" relative="1" as="geometry">
            <mxPoint x="800" y="260" as="sourcePoint" />
            <mxPoint x="330" y="259" as="targetPoint" />
          </mxGeometry>
        </mxCell>
        <mxCell id="4hteUr-Ji259Gm0KMIdJ-10" value="" style="endArrow=classic;html=1;rounded=0;entryX=1;entryY=0.5;entryDx=0;entryDy=0;" edge="1" parent="1">
          <mxGeometry width="50" height="50" relative="1" as="geometry">
            <mxPoint x="834" y="340" as="sourcePoint" />
            <mxPoint x="320" y="339.8" as="targetPoint" />
          </mxGeometry>
        </mxCell>
        <mxCell id="4hteUr-Ji259Gm0KMIdJ-11" value="4444" style="text;html=1;align=center;verticalAlign=middle;whiteSpace=wrap;rounded=0;" vertex="1" parent="1">
          <mxGeometry x="260" y="290" width="60" height="20" as="geometry" />
        </mxCell>
        <mxCell id="4hteUr-Ji259Gm0KMIdJ-12" value="" style="endArrow=classic;html=1;rounded=0;entryX=1;entryY=0.5;entryDx=0;entryDy=0;" edge="1" parent="1">
          <mxGeometry width="50" height="50" relative="1" as="geometry">
            <mxPoint x="834" y="299.96" as="sourcePoint" />
            <mxPoint x="320" y="299.76" as="targetPoint" />
          </mxGeometry>
        </mxCell>
        <mxCell id="4hteUr-Ji259Gm0KMIdJ-5" value="" style="image;points=[];aspect=fixed;html=1;align=center;shadow=0;dashed=0;image=img/lib/allied_telesis/computer_and_terminals/Personal_Computer_with_Server.svg;" vertex="1" parent="1">
          <mxGeometry x="760" y="240" width="120" height="120" as="geometry" />
        </mxCell>
        <mxCell id="4hteUr-Ji259Gm0KMIdJ-13" value="_feed-the-cat._udp.crazy_cat.com" style="text;html=1;align=center;verticalAlign=middle;whiteSpace=wrap;rounded=0;" vertex="1" parent="1">
          <mxGeometry x="360" y="240" width="190" height="20" as="geometry" />
        </mxCell>
        <mxCell id="4hteUr-Ji259Gm0KMIdJ-14" value="_pet-the-cat._tcp.crazy_cat.com" style="text;html=1;align=center;verticalAlign=middle;whiteSpace=wrap;rounded=0;" vertex="1" parent="1">
          <mxGeometry x="350" y="280" width="200" height="20" as="geometry" />
        </mxCell>
        <mxCell id="4hteUr-Ji259Gm0KMIdJ-15" value="_get_stats._tcp.crazy_cat.com" style="text;html=1;align=center;verticalAlign=middle;whiteSpace=wrap;rounded=0;" vertex="1" parent="1">
          <mxGeometry x="340" y="320" width="210" height="20" as="geometry" />
        </mxCell>
        <mxCell id="4hteUr-Ji259Gm0KMIdJ-16" value="client" style="text;html=1;align=center;verticalAlign=middle;whiteSpace=wrap;rounded=0;" vertex="1" parent="1">
          <mxGeometry x="790" y="150" width="60" height="30" as="geometry" />
        </mxCell>
        <mxCell id="4hteUr-Ji259Gm0KMIdJ-17" value="Food accepted: m&lt;span style=&quot;background-color: transparent;&quot;&gt;&lt;font style=&quot;color: rgb(2, 2, 2);&quot;&gt;artini, beer, &lt;/font&gt;tequila&lt;font style=&quot;color: rgb(2, 2, 2);&quot;&gt;, jin, whiskey&lt;/font&gt;&lt;/span&gt;" style="text;html=1;align=left;verticalAlign=middle;whiteSpace=wrap;rounded=0;" vertex="1" parent="1">
          <mxGeometry x="40" y="399" width="280" height="30" as="geometry" />
        </mxCell>
        <mxCell id="4hteUr-Ji259Gm0KMIdJ-18" value="Food rejected: &lt;font color=&quot;#020202&quot;&gt;milk, meat, fish, cheese&lt;/font&gt;" style="text;html=1;align=left;verticalAlign=middle;whiteSpace=wrap;rounded=0;" vertex="1" parent="1">
          <mxGeometry x="40" y="440" width="280" height="30" as="geometry" />
        </mxCell>
      </root>
    </mxGraphModel>
  </diagram>
</mxfile>
